<svg width="200" height="200" viewBox="0 0 200 200" fill="none" xmlns="http://www.w3.org/2000/svg" xmlns:xlink="http://www.w3.org/1999/xlink">
<rect width="200" height="200" fill="url(#pattern0_1020_114)" fill-opacity="0.1" style="mix-blend-mode:luminosity"/>
<defs>
<pattern id="pattern0_1020_114" patternUnits="userSpaceOnUse" patternTransform="matrix(303.129 0 0 138.021 1.41955e-06 2.10901e-05)" preserveAspectRatio="none" viewBox="1.10902e-06 1.64766e-05 236.82 107.829" width="1" height="1">
<use xlink:href="#pattern0_1020_114_inner" transform="translate(0 -107.829)"/>
<use xlink:href="#pattern0_1020_114_inner" transform="translate(118.41 -53.9144)"/>
<g id="pattern0_1020_114_inner">
<path d="M4.53083 24.3626C9.99916 27.0968 11.6707 23.7891 12.3263 20.2121C12.4103 19.7539 13.0341 19.6188 13.3057 19.9973C18.47 27.1947 21.0915 23.3613 21.905 19.9608C21.9786 19.6533 22.3053 19.4737 22.6113 19.5535C25.172 20.222 29.0135 19.0002 27.5308 9.36263C26.0388 -0.335843 18.6331 3.41612 14.3969 7.07518C14.0637 7.36302 13.3388 7.15937 13.1645 6.75501C12.7608 5.8186 11.969 4.25953 10.5308 1.86261C7.53083 -3.13739 0.530829 2.86259 0.530829 8.86261C0.530829 10.1887 1.8538 11.783 3.30692 12.9733C3.67971 13.2786 3.49893 13.9801 3.03408 14.1072C-2.13357 15.5192 -0.0731904 22.0606 4.53083 24.3626Z" fill="url(#paint0_radial_1020_114)"/>
<path d="M5.9793 7.60777C2.01998 13.0518 7.36841 12.1274 7.9625 14.0477C7.97459 14.0867 7.97943 14.1286 7.9789 14.1695C7.96648 15.1368 7.65445 15.8243 6.47929 16.6078C4.97929 17.6078 5.47929 20.6078 7.47929 21.6078C9.47929 22.6078 10.4793 18.1078 10.9793 17.1078C11.4793 16.1078 12.7432 17.6078 14.9793 17.6078C16.9793 17.6078 18.254 15.8825 16.9793 14.6078C16.6474 14.2759 15.2138 14.1643 14.2874 14.1268C13.916 14.1117 13.7051 13.7326 13.9453 13.4489C14.2594 13.078 14.7517 12.5929 15.4793 12.1078C16.2916 11.5662 15.9793 11.1078 15.4793 10.1078C15.034 9.21726 13.7699 8.81722 12.9793 9.60779C12.2132 10.3739 12.034 11.4334 11.9921 11.8872C11.9791 12.0278 11.9259 12.1796 11.7923 12.2255C11.2767 12.4027 10.9793 11.239 10.9793 10.6078C10.9793 9.10774 7.6941 5.24992 5.9793 7.60777Z" fill="url(#paint1_linear_1020_114)"/>
</g>
<use xlink:href="#pattern0_1020_114_inner" transform="translate(118.41 53.9144)"/>
</pattern><radialGradient id="paint0_radial_1020_114" cx="0" cy="0" r="1" gradientUnits="userSpaceOnUse" gradientTransform="translate(13.9306 12.6858) rotate(90) scale(12.6857 13.9306)">
<stop offset="0.144231" stop-color="#FCD54A"/>
<stop offset="1" stop-color="#FBCA18"/>
</radialGradient>
<linearGradient id="paint1_linear_1020_114" x1="6.03083" y1="14.3626" x2="20.5308" y2="15.3626" gradientUnits="userSpaceOnUse">
<stop stop-color="#C97D03"/>
<stop offset="1" stop-color="#A96A04"/>
</linearGradient>
</defs>
</svg>
