<svg width="16" height="16" viewBox="0 0 16 16" fill="none" xmlns="http://www.w3.org/2000/svg">
<g clip-path="url(#clip0_1030_1427)">
<path d="M8 10.5C6 10.5 4.5 14 0 14V16H16L16 14C10.5 14 10 10.5 8 10.5Z" fill="#FCD54A"/>
<path d="M16.25 16.25H-0.25V13.75H0C2.17471 13.75 3.6228 12.9082 4.78906 12.0488C5.36015 11.628 5.90514 11.169 6.40039 10.8389C6.90606 10.5018 7.42555 10.25 8 10.25C8.58189 10.25 9.04283 10.5077 9.47559 10.8506C9.69092 11.0212 9.90679 11.2192 10.1289 11.4229C10.3531 11.6285 10.587 11.8428 10.8467 12.0566C11.871 12.9002 13.316 13.75 16 13.75H16.25V16.25Z" stroke="white" stroke-opacity="0.07" stroke-width="0.5"/>
</g>
<defs>
<clipPath id="clip0_1030_1427">
<rect width="16" height="16" fill="black"/>
</clipPath>
</defs>
</svg>
