<svg width="148" height="32" viewBox="0 0 148 32" fill="none" xmlns="http://www.w3.org/2000/svg">
<g filter="url(#filter0_d_1008_1593)">
<path d="M37.816 27.08C37.5813 27.08 37.3893 27.0054 37.24 26.856C37.0907 26.7067 37.016 26.5147 37.016 26.28V5.16004C37.016 4.92537 37.0907 4.73337 37.24 4.58404C37.3893 4.43471 37.5813 4.36004 37.816 4.36004H40.856C41.0907 4.36004 41.2827 4.43471 41.432 4.58404C41.5813 4.73337 41.656 4.92537 41.656 5.16004V6.37604C42.168 5.69337 42.8293 5.13871 43.64 4.71204C44.4507 4.26404 45.464 4.04004 46.68 4.04004C47.7893 4.04004 48.7493 4.22137 49.56 4.58404C50.392 4.92537 51.0853 5.42671 51.64 6.08804C52.216 6.72804 52.6533 7.50671 52.952 8.42404C53.272 9.34137 53.4533 10.376 53.496 11.528C53.5173 11.9334 53.528 12.3174 53.528 12.68C53.528 13.0427 53.5173 13.4374 53.496 13.864C53.4747 14.952 53.304 15.9547 52.984 16.872C52.6853 17.7894 52.248 18.5787 51.672 19.24C51.096 19.9014 50.392 20.4134 49.56 20.776C48.7493 21.1387 47.7893 21.32 46.68 21.32C45.592 21.32 44.6427 21.128 43.832 20.744C43.0427 20.3387 42.392 19.7947 41.88 19.112V26.28C41.88 26.5147 41.8053 26.7067 41.656 26.856C41.5067 27.0054 41.3253 27.08 41.112 27.08H37.816ZM45.24 17.48C46.0507 17.48 46.6907 17.3094 47.16 16.968C47.6293 16.6054 47.96 16.136 48.152 15.56C48.3653 14.984 48.4933 14.3547 48.536 13.672C48.5787 13.0107 48.5787 12.3494 48.536 11.688C48.4933 11.0054 48.3653 10.376 48.152 9.80004C47.96 9.22404 47.6293 8.76537 47.16 8.42404C46.6907 8.06137 46.0507 7.88004 45.24 7.88004C44.4507 7.88004 43.8107 8.06137 43.32 8.42404C42.8293 8.78671 42.4773 9.24537 42.264 9.80004C42.0507 10.3547 41.9227 10.952 41.88 11.592C41.8587 11.976 41.848 12.3707 41.848 12.776C41.848 13.1814 41.8587 13.5867 41.88 13.992C41.9013 14.5894 42.0293 15.1547 42.264 15.688C42.52 16.2 42.8827 16.6267 43.352 16.968C43.8427 17.3094 44.472 17.48 45.24 17.48Z" fill="#FCFCFC"/>
<path d="M63.5782 21.32C61.8076 21.32 60.3249 21.032 59.1302 20.456C57.9356 19.8587 57.0182 19.016 56.3782 17.928C55.7596 16.84 55.4182 15.5707 55.3542 14.12C55.3329 13.6934 55.3222 13.2134 55.3222 12.68C55.3222 12.1254 55.3329 11.6454 55.3542 11.24C55.4182 9.76804 55.7809 8.49871 56.4422 7.43204C57.1036 6.34404 58.0316 5.51204 59.2262 4.93604C60.4209 4.33871 61.8716 4.04004 63.5782 4.04004C65.2636 4.04004 66.7036 4.33871 67.8982 4.93604C69.0929 5.51204 70.0209 6.34404 70.6822 7.43204C71.3436 8.49871 71.7062 9.76804 71.7702 11.24C71.8129 11.6454 71.8342 12.1254 71.8342 12.68C71.8342 13.2134 71.8129 13.6934 71.7702 14.12C71.7062 15.5707 71.3542 16.84 70.7142 17.928C70.0956 19.016 69.1889 19.8587 67.9942 20.456C66.7996 21.032 65.3276 21.32 63.5782 21.32ZM63.5782 17.8C64.6236 17.8 65.4129 17.48 65.9462 16.84C66.4796 16.1787 66.7676 15.2187 66.8102 13.96C66.8316 13.64 66.8422 13.2134 66.8422 12.68C66.8422 12.1467 66.8316 11.72 66.8102 11.4C66.7676 10.1627 66.4796 9.21337 65.9462 8.55204C65.4129 7.89071 64.6236 7.56004 63.5782 7.56004C62.5329 7.56004 61.7329 7.89071 61.1782 8.55204C60.6449 9.21337 60.3569 10.1627 60.3142 11.4C60.2929 11.72 60.2822 12.1467 60.2822 12.68C60.2822 13.2134 60.2929 13.64 60.3142 13.96C60.3569 15.2187 60.6449 16.1787 61.1782 16.84C61.7329 17.48 62.5329 17.8 63.5782 17.8Z" fill="#FCFCFC"/>
<path d="M75.021 27.08C74.7863 27.08 74.5943 27.0054 74.445 26.856C74.2957 26.7067 74.221 26.5147 74.221 26.28V5.16004C74.221 4.92537 74.2957 4.73337 74.445 4.58404C74.5943 4.43471 74.7863 4.36004 75.021 4.36004H78.061C78.2957 4.36004 78.4877 4.43471 78.637 4.58404C78.7863 4.73337 78.861 4.92537 78.861 5.16004V6.37604C79.373 5.69337 80.0343 5.13871 80.845 4.71204C81.6557 4.26404 82.669 4.04004 83.885 4.04004C84.9943 4.04004 85.9543 4.22137 86.765 4.58404C87.597 4.92537 88.2903 5.42671 88.845 6.08804C89.421 6.72804 89.8583 7.50671 90.157 8.42404C90.477 9.34137 90.6583 10.376 90.701 11.528C90.7223 11.9334 90.733 12.3174 90.733 12.68C90.733 13.0427 90.7223 13.4374 90.701 13.864C90.6797 14.952 90.509 15.9547 90.189 16.872C89.8903 17.7894 89.453 18.5787 88.877 19.24C88.301 19.9014 87.597 20.4134 86.765 20.776C85.9543 21.1387 84.9943 21.32 83.885 21.32C82.797 21.32 81.8477 21.128 81.037 20.744C80.2477 20.3387 79.597 19.7947 79.085 19.112V26.28C79.085 26.5147 79.0103 26.7067 78.861 26.856C78.7117 27.0054 78.5303 27.08 78.317 27.08H75.021ZM82.445 17.48C83.2557 17.48 83.8957 17.3094 84.365 16.968C84.8343 16.6054 85.165 16.136 85.357 15.56C85.5703 14.984 85.6983 14.3547 85.741 13.672C85.7837 13.0107 85.7837 12.3494 85.741 11.688C85.6983 11.0054 85.5703 10.376 85.357 9.80004C85.165 9.22404 84.8343 8.76537 84.365 8.42404C83.8957 8.06137 83.2557 7.88004 82.445 7.88004C81.6557 7.88004 81.0157 8.06137 80.525 8.42404C80.0343 8.78671 79.6823 9.24537 79.469 9.80004C79.2557 10.3547 79.1277 10.952 79.085 11.592C79.0637 11.976 79.053 12.3707 79.053 12.776C79.053 13.1814 79.0637 13.5867 79.085 13.992C79.1063 14.5894 79.2343 15.1547 79.469 15.688C79.725 16.2 80.0877 16.6267 80.557 16.968C81.0477 17.3094 81.677 17.48 82.445 17.48Z" fill="#FCFCFC"/>
<path d="M100.559 21.32C99.0019 21.32 97.6259 21.032 96.4312 20.456C95.2579 19.88 94.3299 19.048 93.6472 17.96C92.9646 16.8507 92.5912 15.528 92.5272 13.992C92.5059 13.6507 92.4952 13.224 92.4952 12.712C92.4952 12.1787 92.5059 11.7414 92.5272 11.4C92.5912 9.84271 92.9539 8.52004 93.6152 7.43204C94.2979 6.32271 95.2366 5.48004 96.4312 4.90404C97.6259 4.32804 99.0019 4.04004 100.559 4.04004C101.989 4.04004 103.205 4.24271 104.207 4.64804C105.21 5.03204 106.031 5.52271 106.671 6.12004C107.311 6.71737 107.781 7.34671 108.079 8.00804C108.399 8.64804 108.57 9.21337 108.591 9.70404C108.613 9.91737 108.538 10.1094 108.367 10.28C108.218 10.4294 108.037 10.504 107.823 10.504H104.399C104.186 10.504 104.015 10.4507 103.887 10.344C103.781 10.216 103.674 10.0454 103.567 9.83204C103.269 9.08537 102.885 8.55204 102.415 8.23204C101.946 7.91204 101.359 7.75204 100.655 7.75204C99.6952 7.75204 98.9379 8.06137 98.3832 8.68004C97.8286 9.29871 97.5299 10.2587 97.4872 11.56C97.4659 12.392 97.4659 13.1494 97.4872 13.832C97.5512 15.1547 97.8499 16.1147 98.3832 16.712C98.9379 17.3094 99.6952 17.608 100.655 17.608C101.402 17.608 101.999 17.448 102.447 17.128C102.895 16.808 103.269 16.2747 103.567 15.528C103.653 15.3147 103.759 15.1547 103.887 15.048C104.015 14.92 104.186 14.856 104.399 14.856H107.823C108.037 14.856 108.218 14.9414 108.367 15.112C108.538 15.2614 108.613 15.4427 108.591 15.656C108.57 16.0187 108.463 16.4454 108.271 16.936C108.101 17.4267 107.813 17.928 107.407 18.44C107.023 18.952 106.522 19.432 105.903 19.88C105.285 20.3067 104.527 20.6587 103.631 20.936C102.757 21.192 101.733 21.32 100.559 21.32Z" fill="#FCFCFC"/>
<path d="M118.162 21.32C116.604 21.32 115.228 21.032 114.034 20.456C112.86 19.88 111.932 19.048 111.25 17.96C110.567 16.8507 110.194 15.528 110.13 13.992C110.108 13.6507 110.098 13.224 110.098 12.712C110.098 12.1787 110.108 11.7414 110.13 11.4C110.194 9.84271 110.556 8.52004 111.218 7.43204C111.9 6.32271 112.839 5.48004 114.034 4.90404C115.228 4.32804 116.604 4.04004 118.162 4.04004C119.591 4.04004 120.807 4.24271 121.81 4.64804C122.812 5.03204 123.634 5.52271 124.274 6.12004C124.914 6.71737 125.383 7.34671 125.682 8.00804C126.002 8.64804 126.172 9.21337 126.194 9.70404C126.215 9.91737 126.14 10.1094 125.97 10.28C125.82 10.4294 125.639 10.504 125.426 10.504H122.002C121.788 10.504 121.618 10.4507 121.49 10.344C121.383 10.216 121.276 10.0454 121.17 9.83204C120.871 9.08537 120.487 8.55204 120.018 8.23204C119.548 7.91204 118.962 7.75204 118.258 7.75204C117.298 7.75204 116.54 8.06137 115.986 8.68004C115.431 9.29871 115.132 10.2587 115.09 11.56C115.068 12.392 115.068 13.1494 115.09 13.832C115.154 15.1547 115.452 16.1147 115.986 16.712C116.54 17.3094 117.298 17.608 118.258 17.608C119.004 17.608 119.602 17.448 120.05 17.128C120.498 16.808 120.871 16.2747 121.17 15.528C121.255 15.3147 121.362 15.1547 121.49 15.048C121.618 14.92 121.788 14.856 122.002 14.856H125.426C125.639 14.856 125.82 14.9414 125.97 15.112C126.14 15.2614 126.215 15.4427 126.194 15.656C126.172 16.0187 126.066 16.4454 125.874 16.936C125.703 17.4267 125.415 17.928 125.01 18.44C124.626 18.952 124.124 19.432 123.506 19.88C122.887 20.3067 122.13 20.6587 121.234 20.936C120.359 21.192 119.335 21.32 118.162 21.32Z" fill="#FCFCFC"/>
<path d="M135.988 21.32C134.218 21.32 132.735 21.032 131.54 20.456C130.346 19.8587 129.428 19.016 128.788 17.928C128.17 16.84 127.828 15.5707 127.764 14.12C127.743 13.6934 127.732 13.2134 127.732 12.68C127.732 12.1254 127.743 11.6454 127.764 11.24C127.828 9.76804 128.191 8.49871 128.852 7.43204C129.514 6.34404 130.442 5.51204 131.636 4.93604C132.831 4.33871 134.282 4.04004 135.988 4.04004C137.674 4.04004 139.114 4.33871 140.308 4.93604C141.503 5.51204 142.431 6.34404 143.092 7.43204C143.754 8.49871 144.116 9.76804 144.18 11.24C144.223 11.6454 144.244 12.1254 144.244 12.68C144.244 13.2134 144.223 13.6934 144.18 14.12C144.116 15.5707 143.764 16.84 143.124 17.928C142.506 19.016 141.599 19.8587 140.404 20.456C139.21 21.032 137.738 21.32 135.988 21.32ZM135.988 17.8C137.034 17.8 137.823 17.48 138.356 16.84C138.89 16.1787 139.178 15.2187 139.22 13.96C139.242 13.64 139.252 13.2134 139.252 12.68C139.252 12.1467 139.242 11.72 139.22 11.4C139.178 10.1627 138.89 9.21337 138.356 8.55204C137.823 7.89071 137.034 7.56004 135.988 7.56004C134.943 7.56004 134.143 7.89071 133.588 8.55204C133.055 9.21337 132.767 10.1627 132.724 11.4C132.703 11.72 132.692 12.1467 132.692 12.68C132.692 13.2134 132.703 13.64 132.724 13.96C132.767 15.2187 133.055 16.1787 133.588 16.84C134.143 17.48 134.943 17.8 135.988 17.8Z" fill="#FCFCFC"/>
</g>
<path d="M4.53083 24.3626C9.99916 27.0968 11.6707 23.7891 12.3263 20.2121C12.4103 19.7539 13.0341 19.6188 13.3057 19.9973C18.47 27.1947 21.0915 23.3613 21.905 19.9607C21.9786 19.6532 22.3053 19.4737 22.6113 19.5535C25.172 20.222 29.0135 19.0001 27.5308 9.36261C26.0388 -0.33586 18.6331 3.41611 14.3969 7.07516C14.0637 7.363 13.3388 7.15936 13.1645 6.75499C12.7608 5.81859 11.969 4.25951 10.5308 1.86259C7.53083 -3.13741 0.530828 2.86258 0.530828 8.86259C0.530828 10.1887 1.8538 11.783 3.30692 12.9733C3.67971 13.2786 3.49893 13.9801 3.03408 14.1071C-2.13357 15.5192 -0.0731915 22.0606 4.53083 24.3626Z" fill="url(#paint0_radial_1008_1593)"/>
<path d="M5.9793 7.60775C2.01998 13.0518 7.36841 12.1274 7.96251 14.0476C7.97459 14.0867 7.97944 14.1286 7.97891 14.1695C7.96649 15.1368 7.65445 15.8243 6.4793 16.6078C4.9793 17.6078 5.4793 20.6078 7.4793 21.6078C9.4793 22.6078 10.4793 18.1078 10.9793 17.1078C11.4793 16.1078 12.7432 17.6078 14.9793 17.6078C16.9793 17.6078 18.2541 15.8825 16.9793 14.6078C16.6474 14.2759 15.2138 14.1643 14.2874 14.1268C13.916 14.1117 13.7051 13.7325 13.9453 13.4489C14.2594 13.0779 14.7517 12.5929 15.4793 12.1078C16.2916 11.5662 15.9793 11.1078 15.4793 10.1078C15.034 9.21724 13.7699 8.8172 12.9793 9.60777C12.2132 10.3739 12.034 11.4334 11.9921 11.8872C11.9791 12.0278 11.9259 12.1796 11.7923 12.2255C11.2768 12.4027 10.9793 11.239 10.9793 10.6078C10.9793 9.10773 7.6941 5.2499 5.9793 7.60775Z" fill="url(#paint1_linear_1008_1593)"/>
<defs>
<filter id="filter0_d_1008_1593" x="34.216" y="3.24004" width="112.828" height="28.64" filterUnits="userSpaceOnUse" color-interpolation-filters="sRGB">
<feFlood flood-opacity="0" result="BackgroundImageFix"/>
<feColorMatrix in="SourceAlpha" type="matrix" values="0 0 0 0 0 0 0 0 0 0 0 0 0 0 0 0 0 0 127 0" result="hardAlpha"/>
<feOffset dy="2"/>
<feGaussianBlur stdDeviation="1.4"/>
<feComposite in2="hardAlpha" operator="out"/>
<feColorMatrix type="matrix" values="0 0 0 0 0.0723032 0 0 0 0 0.0723032 0 0 0 0 0.0723032 0 0 0 0.39 0"/>
<feBlend mode="normal" in2="BackgroundImageFix" result="effect1_dropShadow_1008_1593"/>
<feBlend mode="normal" in="SourceGraphic" in2="effect1_dropShadow_1008_1593" result="shape"/>
</filter>
<radialGradient id="paint0_radial_1008_1593" cx="0" cy="0" r="1" gradientUnits="userSpaceOnUse" gradientTransform="translate(13.9306 12.6857) rotate(90) scale(12.6857 13.9306)">
<stop offset="0.144231" stop-color="#FCD54A"/>
<stop offset="1" stop-color="#FBCA18"/>
</radialGradient>
<linearGradient id="paint1_linear_1008_1593" x1="6.03084" y1="14.3625" x2="20.5308" y2="15.3625" gradientUnits="userSpaceOnUse">
<stop stop-color="#C97D03"/>
<stop offset="1" stop-color="#A96A04"/>
</linearGradient>
</defs>
</svg>
