<svg width="145" height="50" viewBox="0 0 145 50" fill="none" xmlns="http://www.w3.org/2000/svg">
<g clip-path="url(#clip0_1007_67)">
<g filter="url(#filter0_d_1007_67)">
<path d="M6.15992 33.479C-0.240074 33.879 4.15993 29.979 7.15992 27.979C3.15993 24.979 -3.44007 17.8791 2.15993 13.4791C9.15993 7.97906 9.00002 19.4069 10.5 21.9069C10.5 17.4069 18 14.4068 24.5 13.4068C31 12.4068 30.2317 21.4791 29.1599 25.479C28.0881 29.479 20.5341 23.8818 22 25.9069C23.5 27.979 24.6599 35.479 19.1599 36.479C14.7599 37.279 17 30.9069 12.6599 28.979C10 28.2663 12.5599 33.079 6.15992 33.479Z" fill="#FCD54A"/>
<path d="M11.4999 25.9699C11.1666 24.3033 13.3551 19.7025 16.5 21.4995C20 23.4995 13.9999 25.9699 11.4999 25.9699Z" fill="#A1851E"/>
<path d="M9.73334 25.5291C10.2333 23.5291 8.81972 19.7772 6.73335 21.0291C4.23334 22.5291 8.23335 25.5291 9.73334 25.5291Z" fill="#A1851E"/>
<path d="M10.5 26.4995C9.5 27.1662 7.55868 28.8719 8.5 29.4995C10 30.4997 10.5 27.4995 10.5 26.4995Z" fill="#A1851E"/>
<path d="M38.816 37.08C38.5813 37.08 38.3893 37.0053 38.24 36.856C38.0907 36.7066 38.016 36.5146 38.016 36.28V15.16C38.016 14.9253 38.0907 14.7333 38.24 14.584C38.3893 14.4346 38.5813 14.36 38.816 14.36H41.856C42.0907 14.36 42.2827 14.4346 42.432 14.584C42.5813 14.7333 42.656 14.9253 42.656 15.16V16.376C43.168 15.6933 43.8293 15.1386 44.64 14.712C45.4507 14.264 46.464 14.04 47.68 14.04C48.7893 14.04 49.7493 14.2213 50.56 14.584C51.392 14.9253 52.0853 15.4266 52.64 16.088C53.216 16.728 53.6533 17.5066 53.952 18.424C54.272 19.3413 54.4533 20.376 54.496 21.528C54.5173 21.9333 54.528 22.3173 54.528 22.68C54.528 23.0426 54.5173 23.4373 54.496 23.864C54.4747 24.952 54.304 25.9546 53.984 26.872C53.6853 27.7893 53.248 28.5786 52.672 29.24C52.096 29.9013 51.392 30.4133 50.56 30.776C49.7493 31.1386 48.7893 31.32 47.68 31.32C46.592 31.32 45.6427 31.128 44.832 30.744C44.0427 30.3386 43.392 29.7946 42.88 29.112V36.28C42.88 36.5146 42.8053 36.7066 42.656 36.856C42.5067 37.0053 42.3253 37.08 42.112 37.08H38.816ZM46.24 27.48C47.0507 27.48 47.6907 27.3093 48.16 26.968C48.6293 26.6053 48.96 26.136 49.152 25.56C49.3653 24.984 49.4933 24.3546 49.536 23.672C49.5787 23.0106 49.5787 22.3493 49.536 21.688C49.4933 21.0053 49.3653 20.376 49.152 19.8C48.96 19.224 48.6293 18.7653 48.16 18.424C47.6907 18.0613 47.0507 17.88 46.24 17.88C45.4507 17.88 44.8107 18.0613 44.32 18.424C43.8293 18.7866 43.4773 19.2453 43.264 19.8C43.0507 20.3546 42.9227 20.952 42.88 21.592C42.8587 21.976 42.848 22.3706 42.848 22.776C42.848 23.1813 42.8587 23.5866 42.88 23.992C42.9013 24.5893 43.0293 25.1546 43.264 25.688C43.52 26.2 43.8827 26.6266 44.352 26.968C44.8427 27.3093 45.472 27.48 46.24 27.48Z" fill="#FCFCFC"/>
<path d="M64.5783 31.32C62.8076 31.32 61.3249 31.032 60.1303 30.456C58.9356 29.8586 58.0183 29.016 57.3783 27.928C56.7596 26.84 56.4183 25.5706 56.3543 24.12C56.3329 23.6933 56.3223 23.2133 56.3223 22.68C56.3223 22.1253 56.3329 21.6453 56.3543 21.24C56.4183 19.768 56.7809 18.4986 57.4423 17.432C58.1036 16.344 59.0316 15.512 60.2263 14.936C61.4209 14.3386 62.8716 14.04 64.5783 14.04C66.2636 14.04 67.7036 14.3386 68.8983 14.936C70.0929 15.512 71.0209 16.344 71.6823 17.432C72.3436 18.4986 72.7063 19.768 72.7703 21.24C72.8129 21.6453 72.8343 22.1253 72.8343 22.68C72.8343 23.2133 72.8129 23.6933 72.7703 24.12C72.7063 25.5706 72.3543 26.84 71.7143 27.928C71.0956 29.016 70.1889 29.8586 68.9943 30.456C67.7996 31.032 66.3276 31.32 64.5783 31.32ZM64.5783 27.8C65.6236 27.8 66.4129 27.48 66.9463 26.84C67.4796 26.1786 67.7676 25.2186 67.8103 23.96C67.8316 23.64 67.8423 23.2133 67.8423 22.68C67.8423 22.1466 67.8316 21.72 67.8103 21.4C67.7676 20.1626 67.4796 19.2133 66.9463 18.552C66.4129 17.8906 65.6236 17.56 64.5783 17.56C63.5329 17.56 62.7329 17.8906 62.1783 18.552C61.6449 19.2133 61.3569 20.1626 61.3143 21.4C61.2929 21.72 61.2823 22.1466 61.2823 22.68C61.2823 23.2133 61.2929 23.64 61.3143 23.96C61.3569 25.2186 61.6449 26.1786 62.1783 26.84C62.7329 27.48 63.5329 27.8 64.5783 27.8Z" fill="#FCFCFC"/>
<path d="M76.021 37.08C75.7863 37.08 75.5943 37.0053 75.445 36.856C75.2957 36.7066 75.221 36.5146 75.221 36.28V15.16C75.221 14.9253 75.2957 14.7333 75.445 14.584C75.5943 14.4346 75.7863 14.36 76.021 14.36H79.061C79.2957 14.36 79.4877 14.4346 79.637 14.584C79.7863 14.7333 79.861 14.9253 79.861 15.16V16.376C80.373 15.6933 81.0343 15.1386 81.845 14.712C82.6557 14.264 83.669 14.04 84.885 14.04C85.9943 14.04 86.9543 14.2213 87.765 14.584C88.597 14.9253 89.2903 15.4266 89.845 16.088C90.421 16.728 90.8583 17.5066 91.157 18.424C91.477 19.3413 91.6583 20.376 91.701 21.528C91.7223 21.9333 91.733 22.3173 91.733 22.68C91.733 23.0426 91.7223 23.4373 91.701 23.864C91.6797 24.952 91.509 25.9546 91.189 26.872C90.8903 27.7893 90.453 28.5786 89.877 29.24C89.301 29.9013 88.597 30.4133 87.765 30.776C86.9543 31.1386 85.9943 31.32 84.885 31.32C83.797 31.32 82.8477 31.128 82.037 30.744C81.2477 30.3386 80.597 29.7946 80.085 29.112V36.28C80.085 36.5146 80.0103 36.7066 79.861 36.856C79.7117 37.0053 79.5303 37.08 79.317 37.08H76.021ZM83.445 27.48C84.2557 27.48 84.8957 27.3093 85.365 26.968C85.8343 26.6053 86.165 26.136 86.357 25.56C86.5703 24.984 86.6983 24.3546 86.741 23.672C86.7837 23.0106 86.7837 22.3493 86.741 21.688C86.6983 21.0053 86.5703 20.376 86.357 19.8C86.165 19.224 85.8343 18.7653 85.365 18.424C84.8957 18.0613 84.2557 17.88 83.445 17.88C82.6557 17.88 82.0157 18.0613 81.525 18.424C81.0343 18.7866 80.6823 19.2453 80.469 19.8C80.2557 20.3546 80.1277 20.952 80.085 21.592C80.0637 21.976 80.053 22.3706 80.053 22.776C80.053 23.1813 80.0637 23.5866 80.085 23.992C80.1063 24.5893 80.2343 25.1546 80.469 25.688C80.725 26.2 81.0877 26.6266 81.557 26.968C82.0477 27.3093 82.677 27.48 83.445 27.48Z" fill="#FCFCFC"/>
<path d="M101.559 31.32C100.002 31.32 98.6259 31.032 97.4313 30.456C96.2579 29.88 95.3299 29.048 94.6473 27.96C93.9646 26.8506 93.5913 25.528 93.5273 23.992C93.5059 23.6506 93.4953 23.224 93.4953 22.712C93.4953 22.1786 93.5059 21.7413 93.5273 21.4C93.5913 19.8426 93.9539 18.52 94.6153 17.432C95.2979 16.3226 96.2366 15.48 97.4313 14.904C98.6259 14.328 100.002 14.04 101.559 14.04C102.989 14.04 104.205 14.2426 105.207 14.648C106.21 15.032 107.031 15.5226 107.671 16.12C108.311 16.7173 108.781 17.3466 109.079 18.008C109.399 18.648 109.57 19.2133 109.591 19.704C109.613 19.9173 109.538 20.1093 109.367 20.28C109.218 20.4293 109.037 20.504 108.823 20.504H105.399C105.186 20.504 105.015 20.4506 104.887 20.344C104.781 20.216 104.674 20.0453 104.567 19.832C104.269 19.0853 103.885 18.552 103.415 18.232C102.946 17.912 102.359 17.752 101.655 17.752C100.695 17.752 99.9379 18.0613 99.3833 18.68C98.8286 19.2986 98.5299 20.2586 98.4873 21.56C98.4659 22.392 98.4659 23.1493 98.4873 23.832C98.5513 25.1546 98.8499 26.1146 99.3833 26.712C99.9379 27.3093 100.695 27.608 101.655 27.608C102.402 27.608 102.999 27.448 103.447 27.128C103.895 26.808 104.269 26.2746 104.567 25.528C104.653 25.3146 104.759 25.1546 104.887 25.048C105.015 24.92 105.186 24.856 105.399 24.856H108.823C109.037 24.856 109.218 24.9413 109.367 25.112C109.538 25.2613 109.613 25.4426 109.591 25.656C109.57 26.0186 109.463 26.4453 109.271 26.936C109.101 27.4266 108.813 27.928 108.407 28.44C108.023 28.952 107.522 29.432 106.903 29.88C106.285 30.3066 105.527 30.6586 104.631 30.936C103.757 31.192 102.733 31.32 101.559 31.32Z" fill="#FCFCFC"/>
<path d="M119.162 31.32C117.604 31.32 116.228 31.032 115.034 30.456C113.86 29.88 112.932 29.048 112.25 27.96C111.567 26.8506 111.194 25.528 111.13 23.992C111.108 23.6506 111.098 23.224 111.098 22.712C111.098 22.1786 111.108 21.7413 111.13 21.4C111.194 19.8426 111.556 18.52 112.218 17.432C112.9 16.3226 113.839 15.48 115.034 14.904C116.228 14.328 117.604 14.04 119.162 14.04C120.591 14.04 121.807 14.2426 122.81 14.648C123.812 15.032 124.634 15.5226 125.274 16.12C125.914 16.7173 126.383 17.3466 126.682 18.008C127.002 18.648 127.172 19.2133 127.194 19.704C127.215 19.9173 127.14 20.1093 126.97 20.28C126.82 20.4293 126.639 20.504 126.426 20.504H123.002C122.788 20.504 122.618 20.4506 122.49 20.344C122.383 20.216 122.276 20.0453 122.17 19.832C121.871 19.0853 121.487 18.552 121.018 18.232C120.548 17.912 119.962 17.752 119.258 17.752C118.298 17.752 117.54 18.0613 116.986 18.68C116.431 19.2986 116.132 20.2586 116.09 21.56C116.068 22.392 116.068 23.1493 116.09 23.832C116.154 25.1546 116.452 26.1146 116.986 26.712C117.54 27.3093 118.298 27.608 119.258 27.608C120.004 27.608 120.602 27.448 121.05 27.128C121.498 26.808 121.871 26.2746 122.17 25.528C122.255 25.3146 122.362 25.1546 122.49 25.048C122.618 24.92 122.788 24.856 123.002 24.856H126.426C126.639 24.856 126.82 24.9413 126.97 25.112C127.14 25.2613 127.215 25.4426 127.194 25.656C127.172 26.0186 127.066 26.4453 126.874 26.936C126.703 27.4266 126.415 27.928 126.01 28.44C125.626 28.952 125.124 29.432 124.506 29.88C123.887 30.3066 123.13 30.6586 122.234 30.936C121.359 31.192 120.335 31.32 119.162 31.32Z" fill="#FCFCFC"/>
<path d="M136.988 31.32C135.218 31.32 133.735 31.032 132.54 30.456C131.346 29.8586 130.428 29.016 129.788 27.928C129.17 26.84 128.828 25.5706 128.764 24.12C128.743 23.6933 128.732 23.2133 128.732 22.68C128.732 22.1253 128.743 21.6453 128.764 21.24C128.828 19.768 129.191 18.4986 129.852 17.432C130.514 16.344 131.442 15.512 132.636 14.936C133.831 14.3386 135.282 14.04 136.988 14.04C138.674 14.04 140.114 14.3386 141.308 14.936C142.503 15.512 143.431 16.344 144.092 17.432C144.754 18.4986 145.116 19.768 145.18 21.24C145.223 21.6453 145.244 22.1253 145.244 22.68C145.244 23.2133 145.223 23.6933 145.18 24.12C145.116 25.5706 144.764 26.84 144.124 27.928C143.506 29.016 142.599 29.8586 141.404 30.456C140.21 31.032 138.738 31.32 136.988 31.32ZM136.988 27.8C138.034 27.8 138.823 27.48 139.356 26.84C139.89 26.1786 140.178 25.2186 140.22 23.96C140.242 23.64 140.252 23.2133 140.252 22.68C140.252 22.1466 140.242 21.72 140.22 21.4C140.178 20.1626 139.89 19.2133 139.356 18.552C138.823 17.8906 138.034 17.56 136.988 17.56C135.943 17.56 135.143 17.8906 134.588 18.552C134.055 19.2133 133.767 20.1626 133.724 21.4C133.703 21.72 133.692 22.1466 133.692 22.68C133.692 23.2133 133.703 23.64 133.724 23.96C133.767 25.2186 134.055 26.1786 134.588 26.84C135.143 27.48 135.943 27.8 136.988 27.8Z" fill="#FCFCFC"/>
</g>
</g>
<defs>
<filter id="filter0_d_1007_67" x="-2.8" y="11.2" width="150.844" height="30.68" filterUnits="userSpaceOnUse" color-interpolation-filters="sRGB">
<feFlood flood-opacity="0" result="BackgroundImageFix"/>
<feColorMatrix in="SourceAlpha" type="matrix" values="0 0 0 0 0 0 0 0 0 0 0 0 0 0 0 0 0 0 127 0" result="hardAlpha"/>
<feOffset dy="2"/>
<feGaussianBlur stdDeviation="1.4"/>
<feComposite in2="hardAlpha" operator="out"/>
<feColorMatrix type="matrix" values="0 0 0 0 0.0723032 0 0 0 0 0.0723032 0 0 0 0 0.0723032 0 0 0 0.39 0"/>
<feBlend mode="normal" in2="BackgroundImageFix" result="effect1_dropShadow_1007_67"/>
<feBlend mode="normal" in="SourceGraphic" in2="effect1_dropShadow_1007_67" result="shape"/>
</filter>
<clipPath id="clip0_1007_67">
<rect width="145" height="50" fill="white"/>
</clipPath>
</defs>
</svg>
