<svg width="20" height="20" viewBox="0 0 20 20" fill="none" xmlns="http://www.w3.org/2000/svg">
<rect width="20" height="20" fill="url(#paint0_linear_1013_40)"/>
<path d="M15.5 16H4.5C4.22386 16 4.00374 15.7782 4.03394 15.5038C4.15925 14.3644 4.74734 11.5775 7.50705 10.5113C7.32967 10.385 7.16003 10.2435 7 10.0869C5.34315 8.46568 5.34315 5.83717 7 4.21596C8.65685 2.59475 11.3431 2.59475 13 4.21596C14.6569 5.83717 14.6569 8.46568 13 10.0869C12.84 10.2435 12.6703 10.385 12.4929 10.5113C15.2527 11.5775 15.8407 14.3644 15.9661 15.5038C15.9963 15.7782 15.7761 16 15.5 16Z" fill="#222220"/>
<defs>
<linearGradient id="paint0_linear_1013_40" x1="0" y1="0" x2="20" y2="20" gradientUnits="userSpaceOnUse">
<stop stop-color="#FBCA18"/>
<stop offset="1" stop-color="#C97D03"/>
</linearGradient>
</defs>
</svg>
