<svg width="200" height="300" viewBox="0 0 200 300" fill="none" xmlns="http://www.w3.org/2000/svg">
<rect width="200" height="300" fill="#373737"/>
<path d="M91.5658 182.501C90.5206 182.501 89.6061 182.171 88.8222 181.513C88.0383 180.722 87.6464 179.734 87.6464 178.548C87.6464 177.493 87.6464 176.439 87.6464 175.385C87.6464 174.331 87.6464 173.277 87.6464 172.222C88.169 167.083 89.5407 162.537 91.7617 158.584C94.1134 154.499 96.7916 150.809 99.7965 147.515C102.932 144.089 106.002 140.86 109.007 137.83C112.143 134.799 114.756 131.834 116.846 128.935C119.067 125.904 120.373 122.807 120.765 119.645C121.157 115.823 120.373 112.595 118.414 109.959C116.585 107.324 114.037 105.347 110.771 104.03C107.635 102.58 104.304 101.855 100.776 101.855C94.636 101.855 89.6061 103.371 85.6867 106.402C81.7673 109.432 79.089 114.308 77.6519 121.028C77.26 122.61 76.6067 123.796 75.6922 124.586C74.7777 125.245 73.5365 125.575 71.9688 125.575H55.3113C54.1355 125.575 53.0903 125.179 52.1758 124.389C51.3919 123.466 51 122.28 51 120.831C51.1306 115.56 52.3065 110.487 54.5275 105.611C56.8791 100.603 60.2106 96.1232 64.5219 92.17C68.9639 88.2168 74.3204 85.1201 80.5914 82.8799C86.8625 80.508 94.048 79.322 102.148 79.322C111.032 79.322 118.479 80.508 124.489 82.8799C130.629 85.1201 135.463 88.085 138.99 91.7747C142.649 95.4643 145.262 99.4834 146.829 103.832C148.397 108.049 149.116 112.2 148.985 116.285C148.724 121.292 147.613 125.772 145.653 129.725C143.694 133.679 141.277 137.368 138.403 140.794C135.528 144.089 132.589 147.383 129.584 150.677C126.579 153.84 123.901 157.069 121.549 160.363C119.328 163.657 117.826 167.149 117.042 170.839C116.781 172.025 116.585 173.211 116.454 174.397C116.323 175.451 116.193 176.505 116.062 177.559C115.539 179.141 114.886 180.392 114.102 181.315C113.318 182.106 112.208 182.501 110.771 182.501H91.5658ZM90.9779 219.661C89.6714 219.661 88.5609 219.2 87.6464 218.277C86.7318 217.355 86.2746 216.235 86.2746 214.917V197.721C86.2746 196.271 86.7318 195.085 87.6464 194.163C88.5609 193.24 89.6714 192.779 90.9779 192.779H109.987C111.424 192.779 112.6 193.24 113.514 194.163C114.429 195.085 114.886 196.271 114.886 197.721V214.917C114.886 216.235 114.429 217.355 113.514 218.277C112.6 219.2 111.424 219.661 109.987 219.661H90.9779Z" fill="white" fill-opacity="0.1"/>
</svg>
