<svg width="61" height="60" viewBox="0 0 61 60" fill="none" xmlns="http://www.w3.org/2000/svg">
<path d="M7.28915 38.4583C2.45457 31.136 5.25042 19.5776 14.5291 22.8968C14.9828 23.0589 15.4739 22.5653 15.284 22.1226C13.9678 19.0566 13.1365 15.163 14.3441 13.0708C19.2823 4.51761 34.1986 1.72531 34.3601 11.3221C34.4506 16.7074 34.2243 19.7271 33.9859 21.2142C33.9162 21.649 34.4073 22.1751 34.8381 22.0839C43.8583 20.1742 58.4396 20.5331 52.422 36.0046C46.4258 51.4207 39.7245 49.4416 36.7464 46.1985C36.5326 45.9659 36.1603 45.9592 35.9478 46.193C31.9652 50.5824 24.5819 54.4485 23.3112 38.5725C23.2739 38.1085 22.6734 37.9158 22.3808 38.2778C18.4402 43.1604 13.1064 47.2689 7.28915 38.4583ZM23.1431 15.766C12.9784 20.286 21.4719 23.3771 20.6612 26.6175C20.6513 26.6571 20.6344 26.6959 20.6137 26.7311C19.7963 28.1219 18.7881 28.8564 16.4488 29.0073C13.4877 29.1986 11.7316 33.8869 13.7595 36.9583C15.7877 40.0292 20.9168 34.437 22.4526 33.423C23.9882 32.4095 24.5563 35.5882 27.7437 37.4284C30.5945 39.0741 33.8309 37.6644 33.0634 34.7984C32.8387 33.9599 30.4024 32.3731 29.1786 31.6208C28.862 31.4261 28.8642 30.9857 29.2058 30.8392C29.9308 30.5284 31.1977 30.1148 32.9821 29.9997C34.5858 29.8963 34.5179 28.9856 34.6281 27.1487C34.7263 25.5128 33.2535 23.9018 31.4759 24.3782C29.6321 24.8724 28.4704 26.3997 28.112 26.9331C28.0333 27.0502 27.914 27.1442 27.7729 27.1455C26.6959 27.154 27.2567 25.102 27.8022 24.1572C29.0365 22.0184 27.528 13.8162 23.1431 15.766Z" fill="#4F4F4C"/>
</svg>
