<svg width="36" height="36" viewBox="0 0 36 36" fill="none" xmlns="http://www.w3.org/2000/svg">
<path d="M8 29.5C13.4683 32.2342 15.1399 28.9265 15.7955 25.3494C15.8795 24.8913 16.5033 24.7562 16.7748 25.1346C21.9392 32.3321 24.5607 28.4986 25.3742 25.0981C25.4477 24.7906 25.7745 24.6111 26.0804 24.6909C28.6412 25.3594 32.4827 24.1375 31 14.5C29.5079 4.80153 22.1023 8.5535 17.8661 12.2126C17.5328 12.5004 16.808 12.2967 16.6336 11.8924C16.23 10.956 15.4381 9.3969 14 6.99998C11 1.99998 4 7.99997 4 14C4 15.3261 5.32297 16.9204 6.77609 18.1106C7.14888 18.416 6.9681 19.1175 6.50325 19.2445C1.3356 20.6566 3.39598 27.198 8 29.5Z" fill="url(#paint0_radial_1008_1538)"/>
<path d="M9.44846 12.7452C5.48914 18.1893 10.8376 17.2649 11.4317 19.1851C11.4438 19.2242 11.4486 19.2661 11.4481 19.3069C11.4357 20.2742 11.1236 20.9618 9.94846 21.7452C8.44846 22.7452 8.94846 25.7452 10.9485 26.7452C12.9485 27.7452 13.9485 23.2452 14.4485 22.2452C14.9485 21.2452 16.2124 22.7452 18.4485 22.7452C20.4485 22.7452 21.7232 21.02 20.4485 19.7452C20.1165 19.4133 18.6829 19.3017 17.7566 19.2642C17.3852 19.2492 17.1743 18.87 17.4144 18.5863C17.7285 18.2154 18.2208 17.7303 18.9485 17.2452C19.7608 16.7037 19.4485 16.2452 18.9485 15.2452C18.5032 14.3547 17.239 13.9547 16.4485 14.7452C15.6824 15.5113 15.5032 16.5709 15.4613 17.0246C15.4483 17.1652 15.3951 17.317 15.2615 17.3629C14.7459 17.5401 14.4485 16.3765 14.4485 15.7452C14.4485 14.2452 11.1633 10.3874 9.44846 12.7452Z" fill="url(#paint1_linear_1008_1538)"/>
<defs>
<radialGradient id="paint0_radial_1008_1538" cx="0" cy="0" r="1" gradientUnits="userSpaceOnUse" gradientTransform="translate(17.3997 17.8231) rotate(90) scale(12.6857 13.9306)">
<stop offset="0.144231" stop-color="#FCD54A"/>
<stop offset="1" stop-color="#FBCA18"/>
</radialGradient>
<linearGradient id="paint1_linear_1008_1538" x1="9.5" y1="19.5" x2="24" y2="20.5" gradientUnits="userSpaceOnUse">
<stop stop-color="#C97D03"/>
<stop offset="1" stop-color="#A96A04"/>
</linearGradient>
</defs>
</svg>
