<svg width="200" height="200" viewBox="0 0 200 200" fill="none" xmlns="http://www.w3.org/2000/svg" xmlns:xlink="http://www.w3.org/1999/xlink">
<rect width="200" height="200" fill="url(#pattern0_1020_120)" fill-opacity="0.1" style="mix-blend-mode:luminosity"/>
<defs>
<pattern id="pattern0_1020_120" patternUnits="userSpaceOnUse" patternTransform="matrix(224.561 0 0 102.247 1.10902e-06 1.64766e-05)" preserveAspectRatio="none" viewBox="1.10902e-06 1.64766e-05 224.561 102.247" width="1" height="1">
<use xlink:href="#pattern0_1020_120_inner" transform="translate(0 -102.247)"/>
<use xlink:href="#pattern0_1020_120_inner" transform="translate(112.28 -51.1235)"/>
<g id="pattern0_1020_120_inner">
<path d="M4.53083 24.3626C9.99916 27.0968 11.6707 23.7891 12.3263 20.2121C12.4103 19.7539 13.0341 19.6188 13.3057 19.9973C18.47 27.1947 21.0915 23.3613 21.905 19.9608C21.9786 19.6533 22.3053 19.4737 22.6113 19.5535C25.172 20.222 29.0135 19.0002 27.5308 9.36263C26.0388 -0.335843 18.6331 3.41612 14.3969 7.07518C14.0637 7.36302 13.3388 7.15937 13.1645 6.75501C12.7608 5.8186 11.969 4.25953 10.5308 1.86261C7.53083 -3.13739 0.530829 2.86259 0.530829 8.86261C0.530829 10.1887 1.8538 11.783 3.30692 12.9733C3.67971 13.2786 3.49893 13.9801 3.03408 14.1072C-2.13357 15.5192 -0.0731904 22.0606 4.53083 24.3626Z" fill="url(#paint0_radial_1020_120)"/>
<path d="M5.97923 7.60783C2.01991 13.0519 7.36834 12.1275 7.96244 14.0477C7.97452 14.0868 7.97936 14.1287 7.97884 14.1696C7.96642 15.1369 7.65438 15.8244 6.47922 16.6078C4.97922 17.6078 5.47923 20.6078 7.47923 21.6078C9.47922 22.6078 10.4792 18.1078 10.9792 17.1078C11.4792 16.1078 12.7432 17.6079 14.9792 17.6079C16.9792 17.6079 18.254 15.8826 16.9792 14.6078C16.6473 14.2759 15.2137 14.1644 14.2873 14.1268C13.916 14.1118 13.705 13.7326 13.9452 13.449C14.2593 13.078 14.7516 12.5929 15.4792 12.1078C16.2916 11.5663 15.9792 11.1079 15.4792 10.1079C15.034 9.21732 13.7698 8.81728 12.9792 9.60785C12.2131 10.3739 12.0339 11.4335 11.992 11.8872C11.979 12.0279 11.9258 12.1796 11.7923 12.2255C11.2767 12.4027 10.9792 11.2391 10.9792 10.6078C10.9792 9.1078 7.69403 5.24998 5.97923 7.60783Z" fill="url(#paint1_linear_1020_120)"/>
</g>
<use xlink:href="#pattern0_1020_120_inner" transform="translate(112.28 51.1235)"/>
</pattern><radialGradient id="paint0_radial_1020_120" cx="0" cy="0" r="1" gradientUnits="userSpaceOnUse" gradientTransform="translate(13.9306 12.6858) rotate(90) scale(12.6857 13.9306)">
<stop offset="0.144231" stop-color="#A3A3A3"/>
<stop offset="1" stop-color="#8A8A8A"/>
</radialGradient>
<linearGradient id="paint1_linear_1020_120" x1="6.03076" y1="14.3626" x2="20.5308" y2="15.3626" gradientUnits="userSpaceOnUse">
<stop stop-color="#666666"/>
<stop offset="1" stop-color="#575757"/>
</linearGradient>
</defs>
</svg>
