<svg width="179" height="300" viewBox="0 0 179 300" fill="none" xmlns="http://www.w3.org/2000/svg">
<g clip-path="url(#clip0_1017_41)">
<path d="M112.328 300C109.461 300 106.88 299 104.586 297C102.578 295 101.575 292.429 101.575 289.286V85.2857L42.6454 130.286C40.0645 132.286 37.3403 133 34.4727 132.429C31.8919 131.857 29.5978 130.286 27.5905 127.714L2.21215 94.7143C0.491589 92.1429 -0.225312 89.4286 0.0614487 86.5714C0.63497 83.4286 2.35553 81 5.22314 79.2857L104.156 3.00001C105.876 1.85715 107.453 1.14287 108.887 0.857157C110.608 0.285719 112.472 0 114.479 0H168.246C171.114 0 173.552 1 175.559 3.00001C177.853 5 179 7.57143 179 10.7143V289.286C179 292.429 177.853 295 175.559 297C173.552 299 171.114 300 168.246 300H112.328Z" fill="url(#paint0_linear_1017_41)"/>
<path d="M114.479 3H168.246C170.331 3 172.004 3.69282 173.441 5.125L173.512 5.19531L173.588 5.26172C175.204 6.67089 176 8.40604 176 10.7139V289.286C176 291.594 175.204 293.329 173.588 294.738L173.512 294.805L173.441 294.875C172.004 296.307 170.331 297 168.246 297H112.328C110.263 297 108.397 296.313 106.636 294.805C105.301 293.441 104.574 291.686 104.574 289.286V79.2197L99.7539 82.9014L40.8242 127.901L40.8164 127.908L40.8076 127.914C38.8364 129.442 36.9919 129.861 35.0947 129.492C33.3516 129.099 31.6285 128.012 29.9551 125.868L4.66504 92.9834C3.3561 91.0022 2.8579 89.0346 3.03711 86.9902C3.4671 84.8005 4.6372 83.131 6.7627 81.8604L6.91504 81.7695L7.05469 81.6611L105.887 5.45215C107.373 4.47421 108.561 3.98068 109.474 3.79883L109.656 3.7627L109.833 3.7041C111.218 3.2443 112.759 3.00004 114.479 3Z" stroke="white" stroke-opacity="0.4" stroke-width="6"/>
</g>
<defs>
<linearGradient id="paint0_linear_1017_41" x1="89.5" y1="0" x2="89.5" y2="300" gradientUnits="userSpaceOnUse">
<stop stop-color="#FCD54A"/>
<stop offset="1" stop-color="#FBC504"/>
</linearGradient>
<clipPath id="clip0_1017_41">
<rect width="179" height="300" fill="white"/>
</clipPath>
</defs>
</svg>
