<svg width="179" height="300" viewBox="0 0 179 300" fill="none" xmlns="http://www.w3.org/2000/svg">
<g clip-path="url(#clip0_1017_41)">
<path d="M112.328 300C109.461 300 106.88 299 104.586 297C102.578 295 101.575 292.429 101.575 289.286V85.2857L42.6454 130.286C40.0645 132.286 37.3403 133 34.4727 132.429C31.8919 131.857 29.5978 130.286 27.5905 127.714L2.21215 94.7143C0.491589 92.1429 -0.225312 89.4286 0.0614487 86.5714C0.63497 83.4286 2.35553 81 5.22314 79.2857L104.156 3.00001C105.876 1.85715 107.453 1.14287 108.887 0.857157C110.608 0.285719 112.472 0 114.479 0H168.246C171.114 0 173.552 1 175.559 3.00001C177.853 5 179 7.57143 179 10.7143V289.286C179 292.429 177.853 295 175.559 297C173.552 299 171.114 300 168.246 300H112.328Z" fill="white" fill-opacity="0.8"/>
</g>
<defs>
<clipPath id="clip0_1017_41">
<rect width="179" height="300" fill="white"/>
</clipPath>
</defs>
</svg>
