<svg width="248" height="300" viewBox="0 0 248 300" fill="none" xmlns="http://www.w3.org/2000/svg">
<g clip-path="url(#clip0_1017_49)">
<path d="M123.789 300C101.819 300 83.0892 297.465 67.598 292.394C52.1068 287.042 39.4321 280.282 29.5741 272.113C19.7161 263.662 12.393 254.789 7.60477 245.493C2.81658 235.915 0.281658 226.761 0 218.028C0 215.493 0.844975 213.38 2.53492 211.69C4.50653 210 6.7598 209.155 9.29472 209.155H64.2181C67.598 209.155 70.2737 209.859 72.2453 211.268C74.2169 212.394 76.0477 214.366 77.7376 217.183C79.9909 222.535 83.23 226.901 87.4548 230.282C91.9614 233.662 97.3129 236.056 103.509 237.465C109.706 238.592 116.466 239.155 123.789 239.155C138.153 239.155 149.279 235.916 157.165 229.437C165.333 222.676 169.417 213.521 169.417 201.972C169.417 189.859 165.615 181.268 158.01 176.197C150.405 170.845 139.562 168.169 125.479 168.169H78.5826C75.4844 168.169 72.9495 167.183 70.9779 165.211C69.0062 163.239 68.0204 160.704 68.0204 157.606V133.944C68.0204 130.563 68.7246 127.606 70.1329 125.07C71.5412 122.535 73.0903 120.704 74.7802 119.577L144.068 60.8451H26.6167C23.8001 60.8451 21.2652 59.8592 19.0119 57.8873C17.0403 55.9155 16.0545 53.3803 16.0545 50.2817V10.5634C16.0545 7.46479 17.0403 4.92958 19.0119 2.95776C21.2652 0.98592 23.8001 0 26.6167 0H220.961C224.059 0 226.594 0.98592 228.566 2.95776C230.819 4.92958 231.945 7.46479 231.945 10.5634V46.4789C231.945 49.5775 231.241 52.3944 229.833 54.9296C228.425 57.1831 226.876 59.0141 225.186 60.4225L160.968 120L163.925 120.845C179.98 122.817 194.344 127.183 207.019 133.944C219.693 140.423 229.692 149.577 237.015 161.408C244.338 173.239 248 188.31 248 206.62C248 225.775 242.508 242.394 231.523 256.479C220.82 270.282 206.174 280.986 187.584 288.592C168.995 296.197 147.73 300 123.789 300Z" fill="url(#paint0_linear_1017_49)"/>
<path d="M26.6162 3H220.961C223.36 3.00002 225.1 3.73495 226.444 5.0791L226.515 5.14941L226.59 5.21582C228.167 6.59567 228.945 8.29555 228.945 10.5635V46.4785C228.945 49.0734 228.366 51.3601 227.248 53.4014C225.986 55.4089 224.651 56.9626 223.265 58.1182L223.204 58.1689L223.146 58.2236L158.928 117.801L155.024 121.422L160.144 122.885L163.101 123.729L163.326 123.794L163.56 123.822C179.294 125.755 193.296 130.024 205.606 136.591L205.63 136.603L205.653 136.615C217.852 142.851 227.437 151.633 234.465 162.987C241.415 174.216 245 188.696 245 206.62C245 225.158 239.7 241.116 229.157 254.634L229.152 254.641C218.817 267.969 204.625 278.378 186.448 285.814C168.282 293.247 147.414 297 123.789 297C102.041 297 83.6489 294.488 68.5459 289.547C53.3267 284.285 41.0094 277.688 31.5029 269.814C21.8907 261.57 14.8532 253.005 10.2832 244.142C5.66133 234.894 3.27523 226.188 3 217.996C3.00655 216.263 3.54525 214.963 4.57715 213.894C5.99496 212.709 7.53204 212.155 9.29492 212.155H64.2178C67.2123 212.155 69.2047 212.782 70.502 213.709L70.625 213.797L70.7568 213.872C72.098 214.639 73.5649 216.104 75.0674 218.567C77.4967 224.247 80.9965 228.956 85.5811 232.624L85.6172 232.653L85.6543 232.682C90.5388 236.345 96.2898 238.901 102.845 240.391L102.908 240.404L102.973 240.416C109.372 241.58 116.314 242.155 123.789 242.155C138.569 242.155 150.464 238.824 159.069 231.755L159.078 231.748C168.002 224.362 172.417 214.324 172.417 201.972C172.417 189.418 168.501 179.807 160.079 173.976L159.675 173.701C151.37 167.883 139.845 165.169 125.479 165.169H78.583C76.1837 165.169 74.4436 164.434 73.0996 163.09C71.7556 161.746 71.0205 160.005 71.0205 157.605V133.943C71.0205 130.988 71.6334 128.548 72.7559 126.527C74.0249 124.243 75.2854 122.846 76.4443 122.073L76.5879 121.978L76.7197 121.866L146.008 63.1338L152.247 57.8447H26.6162C24.6061 57.8446 22.7885 57.1757 21.0684 55.6982C19.7663 54.3633 19.0547 52.6416 19.0547 50.2812V10.5635C19.0547 8.20302 19.7662 6.48144 21.0684 5.14648C22.7884 3.66912 24.6062 3.00011 26.6162 3Z" stroke="white" stroke-opacity="0.4" stroke-width="6"/>
</g>
<defs>
<linearGradient id="paint0_linear_1017_49" x1="124" y1="0" x2="124" y2="300" gradientUnits="userSpaceOnUse">
<stop stop-color="#FCD54A"/>
<stop offset="1" stop-color="#FBC504"/>
</linearGradient>
<clipPath id="clip0_1017_49">
<rect width="248" height="300" fill="white"/>
</clipPath>
</defs>
</svg>
