<svg width="238" height="300" viewBox="0 0 238 300" fill="none" xmlns="http://www.w3.org/2000/svg">
<g clip-path="url(#clip0_1017_46)">
<path d="M10.9522 300C7.86313 300 5.19528 299.017 2.94867 297.051C0.982891 295.084 0 292.556 0 289.466V259.551C0 257.584 0.561652 254.635 1.68496 250.702C2.80826 246.489 5.75693 242.556 10.531 238.904L54.3398 195.927C76.8059 178.792 95.2 164.326 109.522 152.528C124.125 140.449 134.937 129.775 141.958 120.506C148.978 111.236 152.489 102.528 152.489 94.382C152.489 84.8315 149.961 76.9663 144.906 70.7865C140.132 64.3258 131.707 61.0955 119.632 61.0955C111.488 61.0955 104.608 62.9213 98.9912 66.573C93.6555 69.9438 89.5835 74.4382 86.7752 80.0562C83.967 85.6741 82.0012 91.4326 80.8779 97.3315C79.7546 100.983 77.7888 103.511 74.9805 104.916C72.4531 106.32 69.6448 107.022 66.5558 107.022H13.9009C11.3735 107.022 9.26726 106.18 7.5823 104.494C5.89735 102.809 5.05487 100.702 5.05487 98.1741C5.33569 84.691 8.14395 72.0506 13.4796 60.2528C19.0962 48.4551 26.8189 38.0618 36.6478 29.073C46.7575 19.8034 58.6926 12.6404 72.4531 7.58427C86.4944 2.52809 102.221 0 119.632 0C143.502 0 163.722 3.79213 180.29 11.3764C197.14 18.9607 209.917 29.6348 218.623 43.3989C227.329 56.882 231.681 72.7528 231.681 91.0112C231.681 104.775 228.592 117.697 222.414 129.775C216.517 141.573 207.952 152.949 196.719 163.904C185.766 174.579 172.708 185.674 157.543 197.191L118.789 236.376H227.048C230.137 236.376 232.664 237.36 234.63 239.326C236.877 241.292 238 243.82 238 246.91V289.466C238 292.556 236.877 295.084 234.63 297.051C232.664 299.017 230.137 300 227.048 300H10.9522Z" fill="url(#paint0_linear_1017_46)"/>
<path d="M119.632 3C143.199 3 162.967 6.74608 179.042 14.1045L179.05 14.1084L179.059 14.1123C195.446 21.4887 207.738 31.8006 216.088 45.0029L216.095 45.0146L216.103 45.0264C224.453 57.9602 228.682 73.2489 228.682 91.0117C228.682 104.308 225.702 116.76 219.743 128.409L219.737 128.422L219.73 128.434C214.009 139.88 205.662 150.992 194.625 161.756C183.779 172.326 170.818 183.342 155.729 194.802L155.56 194.931L155.41 195.081L116.656 234.267L111.604 239.376H227.048C229.438 239.376 231.171 240.109 232.509 241.447L232.579 241.518L232.654 241.583C234.224 242.957 235 244.651 235 246.91V289.467C235 291.726 234.224 293.419 232.654 294.793L232.579 294.858L232.509 294.93C231.171 296.268 229.438 297 227.048 297H10.9521C8.59757 297 6.66265 296.283 5 294.856C3.70704 293.528 3.0001 291.815 3 289.467V259.551C3 258.027 3.45869 255.415 4.56934 251.526L4.57715 251.501L4.58398 251.475C5.48224 248.106 7.91021 244.686 12.3535 241.287L12.5 241.175L12.6318 241.046L56.3047 198.2C78.7207 181.102 97.099 166.649 111.43 154.844L111.435 154.84C126.119 142.694 137.129 131.849 144.349 122.316C151.6 112.742 155.488 103.409 155.488 94.3818C155.488 84.309 152.818 75.7517 147.275 68.9453C141.688 61.4332 132.129 58.0957 119.632 58.0957C111.034 58.0957 103.555 60.0271 97.3555 64.0576C91.5758 67.7169 87.1401 72.6166 84.0918 78.7148C81.197 84.5059 79.153 90.4604 77.9697 96.5732C77.0287 99.5475 75.5327 101.285 73.6387 102.232L73.5801 102.262L73.5234 102.293C71.4722 103.433 69.1708 104.022 66.5557 104.022H13.9014C12.1163 104.022 10.7897 103.459 9.7041 102.373C8.62532 101.294 8.06177 99.9772 8.05469 98.208C8.33058 85.1343 11.0503 72.9135 16.2002 61.5166C21.6461 50.0856 29.1309 40.0134 38.6729 31.2871L38.6748 31.2842C48.4722 22.3009 60.0579 15.3365 73.4688 10.4062L73.4697 10.4072C87.1357 5.48622 102.511 3 119.632 3Z" stroke="white" stroke-opacity="0.4" stroke-width="6"/>
</g>
<defs>
<linearGradient id="paint0_linear_1017_46" x1="119" y1="0" x2="119" y2="300" gradientUnits="userSpaceOnUse">
<stop stop-color="#FCD54A"/>
<stop offset="1" stop-color="#FBC504"/>
</linearGradient>
<clipPath id="clip0_1017_46">
<rect width="238" height="300" fill="white"/>
</clipPath>
</defs>
</svg>
