<svg width="238" height="300" viewBox="0 0 238 300" fill="none" xmlns="http://www.w3.org/2000/svg">
<g clip-path="url(#clip0_1017_46)">
<path d="M10.9522 300C7.86313 300 5.19528 299.017 2.94867 297.051C0.982891 295.084 0 292.556 0 289.466V259.551C0 257.584 0.561652 254.635 1.68496 250.702C2.80826 246.489 5.75693 242.556 10.531 238.904L54.3398 195.927C76.8059 178.792 95.2 164.326 109.522 152.528C124.125 140.449 134.937 129.775 141.958 120.506C148.978 111.236 152.489 102.528 152.489 94.382C152.489 84.8315 149.961 76.9663 144.906 70.7865C140.132 64.3258 131.707 61.0955 119.632 61.0955C111.488 61.0955 104.608 62.9213 98.9912 66.573C93.6555 69.9438 89.5835 74.4382 86.7752 80.0562C83.967 85.6741 82.0012 91.4326 80.8779 97.3315C79.7546 100.983 77.7888 103.511 74.9805 104.916C72.4531 106.32 69.6448 107.022 66.5558 107.022H13.9009C11.3735 107.022 9.26726 106.18 7.5823 104.494C5.89735 102.809 5.05487 100.702 5.05487 98.1741C5.33569 84.691 8.14395 72.0506 13.4796 60.2528C19.0962 48.4551 26.8189 38.0618 36.6478 29.073C46.7575 19.8034 58.6926 12.6404 72.4531 7.58427C86.4944 2.52809 102.221 0 119.632 0C143.502 0 163.722 3.79213 180.29 11.3764C197.14 18.9607 209.917 29.6348 218.623 43.3989C227.329 56.882 231.681 72.7528 231.681 91.0112C231.681 104.775 228.592 117.697 222.414 129.775C216.517 141.573 207.952 152.949 196.719 163.904C185.766 174.579 172.708 185.674 157.543 197.191L118.789 236.376H227.048C230.137 236.376 232.664 237.36 234.63 239.326C236.877 241.292 238 243.82 238 246.91V289.466C238 292.556 236.877 295.084 234.63 297.051C232.664 299.017 230.137 300 227.048 300H10.9522Z" fill="white" fill-opacity="0.8"/>
</g>
<defs>
<clipPath id="clip0_1017_46">
<rect width="238" height="300" fill="white"/>
</clipPath>
</defs>
</svg>
