<svg width="248" height="300" viewBox="0 0 248 300" fill="none" xmlns="http://www.w3.org/2000/svg">
<g clip-path="url(#clip0_1017_49)">
<path d="M123.789 300C101.819 300 83.0892 297.465 67.598 292.394C52.1068 287.042 39.4321 280.282 29.5741 272.113C19.7161 263.662 12.393 254.789 7.60477 245.493C2.81658 235.915 0.281658 226.761 0 218.028C0 215.493 0.844975 213.38 2.53492 211.69C4.50653 210 6.7598 209.155 9.29472 209.155H64.2181C67.598 209.155 70.2737 209.859 72.2453 211.268C74.2169 212.394 76.0477 214.366 77.7376 217.183C79.9909 222.535 83.23 226.901 87.4549 230.282C91.9614 233.662 97.3129 236.056 103.509 237.465C109.706 238.592 116.466 239.155 123.789 239.155C138.153 239.155 149.279 235.916 157.165 229.437C165.333 222.676 169.417 213.521 169.417 201.972C169.417 189.859 165.615 181.268 158.01 176.197C150.405 170.845 139.562 168.169 125.479 168.169H78.5826C75.4844 168.169 72.9495 167.183 70.9779 165.211C69.0062 163.239 68.0204 160.704 68.0204 157.606V133.944C68.0204 130.563 68.7246 127.606 70.1329 125.07C71.5412 122.535 73.0903 120.704 74.7802 119.577L144.068 60.8451H26.6167C23.8001 60.8451 21.2652 59.8592 19.0119 57.8873C17.0403 55.9155 16.0545 53.3803 16.0545 50.2817V10.5634C16.0545 7.46479 17.0403 4.92958 19.0119 2.95776C21.2652 0.98592 23.8001 0 26.6167 0H220.961C224.059 0 226.594 0.98592 228.566 2.95776C230.819 4.92958 231.945 7.46479 231.945 10.5634V46.4789C231.945 49.5775 231.241 52.3944 229.833 54.9296C228.425 57.1831 226.876 59.0141 225.186 60.4225L160.968 120L163.925 120.845C179.98 122.817 194.344 127.183 207.019 133.944C219.693 140.423 229.692 149.577 237.015 161.408C244.338 173.239 248 188.31 248 206.62C248 225.775 242.508 242.394 231.523 256.479C220.82 270.282 206.174 280.986 187.584 288.592C168.995 296.197 147.73 300 123.789 300Z" fill="white" fill-opacity="0.8"/>
</g>
<defs>
<clipPath id="clip0_1017_49">
<rect width="248" height="300" fill="white"/>
</clipPath>
</defs>
</svg>
