<svg width="16" height="16" viewBox="0 0 16 16" fill="none" xmlns="http://www.w3.org/2000/svg">
<path d="M4.94525 13.562L4.07025 6.56202C4.03295 6.26359 4.26564 6 4.56639 6H11.4336C11.7344 6 11.9671 6.26359 11.9297 6.56202L11.0547 13.562C11.0235 13.8122 10.8108 14 10.5586 14H5.44139C5.18923 14 4.97653 13.8122 4.94525 13.562Z" fill="#FC3636" fill-opacity="0.08"/>
<path d="M7.25 3.5V4H8.5V3.5C8.5 3.22386 8.27614 3 8 3H7.75C7.47385 3 7.25 3.22386 7.25 3.5Z" fill="#FC3636" fill-opacity="0.08"/>
<path d="M3.5 4H7.25M12.5 4H8.5M7.25 4V3.5C7.25 3.22386 7.47385 3 7.75 3H8C8.27614 3 8.5 3.22386 8.5 3.5V4M7.25 4H8.5M11.9297 6.56202L11.0547 13.562C11.0235 13.8122 10.8108 14 10.5586 14H5.44139C5.18923 14 4.97653 13.8122 4.94525 13.562L4.07025 6.56202C4.03295 6.26359 4.26564 6 4.56639 6H11.4336C11.7344 6 11.9671 6.26359 11.9297 6.56202Z" stroke="#FC3636" stroke-linecap="round" stroke-linejoin="round"/>
</svg>
